PathFileType	4	(X/Y/Z)	Apose_0-50.trc
DataRate	CameraRate	NumFrames	NumMarkers	Units	OrigDataRate	OrigDataStartFrame	OrigNumFrames
30	30	8	22	m	30	30	50
Frame#	Time	Hip			RHip			RKnee			RAnkle			RBigToe			RSmallToe			RHeel			LHip			LKnee			LAnkle			LBigToe			LSmallToe			LHeel			Neck			Head			Nose			RShoulder			RElbow			RWrist			LShoulder			LElbow			LWrist		
		X1	Y1	Z1	X2	Y2	Z2	X3	Y3	Z3	X4	Y4	Z4	X5	Y5	Z5	X6	Y6	Z6	X7	Y7	Z7	X8	Y8	Z8	X9	Y9	Z9	X10	Y10	Z10	X11	Y11	Z11	X12	Y12	Z12	X13	Y13	Z13	X14	Y14	Z14	X15	Y15	Z15	X16	Y16	Z16	X17	Y17	Z17	X18	Y18	Z18	X19	Y19	Z19	X20	Y20	Z20	X21	Y21	Z21	X22	Y22	Z22
31	1.0333333333333334	0.03492197369655168	0.9233273101742343	0.3555045173175088	0.026047309458869	0.8831899680956748	0.4622424643365725	0.003502383678863708	0.5081857768362175	0.49553111476759276	-0.004497560328010007	0.11288205091598802	0.5154952214100227	0.19285241765792255	0.03378260566228395	0.5585082884233235	0.14784346363171758	0.03152734729786919	0.6282274310671931	-0.03627666881941839	0.03808957564932257	0.4957089336657226	0.02838659689524728	0.8817839726186628	0.24253669536904396	0.010463535046025523	0.5092312387868767	0.22402544287526788	0.00852913952736567	0.11774964103828475	0.2101528463389606	0.22034437284254296	0.049381534825144846	0.18802209758558217	0.16643869016916635	0.03529100359324736	0.12528053617134952	-0.052598193513490404	0.042548356065836554	0.2081917980647275	0.04789952027980428	1.5773235760286473	0.34665399994393686	0.23910764851534477	1.768348288674154	0.3357458905031781	0.228420094066171	1.5871148133857695	0.32589953501759644	0.020094796107042536	1.4968960745933981	0.532996176666629	0.073875922618094	1.2394270097507962	0.7156749374397784	0.11971987988453321	1.0494977155221992	0.8881056815071151	0.014218634645416683	1.4855158008064056	0.1439698793992263	0.029277396984158353	1.228937676383228	0.00012376929867411083	0.07569670165811221	1.0184927724072628	-0.15117291752364034
32	1.0666666666666667	0.03588597243131593	0.9233859299404464	0.35421811719967145	0.027204011603204147	0.8830160701209133	0.4605774808153257	0.003981939635730556	0.509038609081703	0.49551129923329545	-0.0062716285576741625	0.11324795103371892	0.5149194895015653	0.1928213825109425	0.0336135075479782	0.558636008906631	0.14686132043295363	0.031389266393426866	0.629593228602592	-0.036706426890185564	0.03834876531155413	0.4960773356074147	0.028190353625807046	0.8817771239782317	0.24240243721647953	0.01115942836938064	0.5087739225345509	0.22453497184223684	0.008115680282222546	0.11541958975934576	0.21093565469689105	0.22054079152895742	0.048689579134366806	0.1859900191851455	0.16634062168247962	0.03550834020225971	0.1254134849459842	-0.0438970107142041	0.058405914760366995	0.20253915037568435	0.04833569510150535	1.5777718078296488	0.34663513293247206	0.23803948886056664	1.7679382522851623	0.33710782571280656	0.225756743840839	1.586629740019328	0.3252880299400864	0.021115028351891236	1.4979378183876895	0.5321138677745318	0.053716450855033425	1.2367285871297953	0.7138295838731633	0.121227330393095	1.048330418109253	0.8888968733052569	0.015831336404811987	1.4859494067994166	0.14477367369849634	0.031111052801147513	1.2289980930895001	-0.00029750156767702023	0.0777760443326368	1.0210676977980573	-0.15065055524526866
33	1.1	0.035711821809381046	0.9229162227969069	0.35379848800568564	0.0276913062999637	0.8831713079127473	0.460068315008955	0.004991124372352903	0.5104907821364996	0.4961893595706974	-0.006413417340286394	0.11194218217868179	0.5141107001824403	0.19214449627852082	0.03344636439208417	0.5594682938848743	0.14628429352595104	0.03259963313333802	0.6294004363673176	-0.03637270006667607	0.038349536213898694	0.4957508181408271	0.02816945659891762	0.8818678877261096	0.24194605229438354	0.01131630526014883	0.5087048289036356	0.22509478587411486	0.000797489654099237	0.12573253802844211	0.2076103742738591	0.22101355283391969	0.04981180381084438	0.18717718991190047	0.16608746770312263	0.03408013021544233	0.12561170162551802	-0.043073303621477745	0.05957571883540697	0.20273866289983683	0.04830186012357164	1.5787174234821644	0.34641947479987184	0.23623854822371157	1.7690763281271422	0.3358258175615093	0.22720877852411944	1.586629761148972	0.3270207293530439	0.02132765042054994	1.4975913989907632	0.5315574829631514	0.07613788008180711	1.2376413186919428	0.7159308792759358	0.12143560727386148	1.047484368803924	0.8886276007088029	0.01607797084375651	1.4862069305580823	0.1441735663573815	0.029165249540067693	1.2282480919250758	0.0008300446098262948	0.0762876255273765	1.0203767859229789	-0.14945652416572433
34	1.1333333333333333	0.037519783561612015	0.9216349681394141	0.35389031968867035	0.02920317228500402	0.881988268146046	0.46041018716623505	0.006006700728817821	0.5090374880367794	0.4953392626582517	-0.013450809319764778	0.12066747995592501	0.5154388757002124	0.19028914267931193	0.030999678116422177	0.5597762038474301	0.1445314934709271	0.031108611184233904	0.6278176725299275	-0.03742140137145067	0.03655913812715482	0.49623616020833966	0.029289965540612514	0.8815957557498895	0.24185877566018354	0.012818397723277955	0.5063321441780683	0.22342364552539534	0.00868488091410145	0.11623965472304014	0.21002243424507497	0.21821079495010895	0.047383280579925746	0.18572290043159517	0.16607159017744538	0.03563936689838953	0.12460005900312016	-0.04497109860404008	0.05933101533607701	0.20356397035449508	0.048877719348292895	1.5785558855512367	0.34566710517642635	0.23429239858695927	1.7700283109204997	0.3367830268283811	0.22586089837771292	1.5886680675832041	0.324780477004675	0.02118582534315189	1.4979539929486314	0.5318617141558486	0.054965354400373805	1.2364824210997858	0.7127885567260572	0.12232994793760527	1.0478238708616516	0.8879103198521882	0.017154313271100462	1.4866570294297237	0.1445426150877763	0.028344552762162384	1.2278598114330843	-0.0002635525589149449	0.07971801894531456	1.0252963222271743	-0.15086059271271013
35	1.1666666666666667	0.03677888290333834	0.921819878641695	0.35503454884212865	0.030125009053181485	0.8822123285481058	0.46190608516606846	0.006213533095168045	0.5080637189479963	0.4953596520753384	-0.012612750421940488	0.12083551407205184	0.5168461944777413	0.19379597015584202	0.03247984645392483	0.5590444083676192	0.14647228401572837	0.028691780526118905	0.6281066730679886	-0.03535845805536991	0.03721553323600056	0.494830551860264	0.031197657943025068	0.8814799903641773	0.24342845622290085	0.013152846674022809	0.5090073251581588	0.22324477297213835	0.006378120447603872	0.11819185915134578	0.2123492307053844	0.21767058430648714	0.04811149200473234	0.18671953139425798	0.1660257540569944	0.03597849586310261	0.12371037045908286	-0.04495263883340148	0.060187439677962064	0.20397973672904307	0.049070820208135524	1.577606270232733	0.34533966871631927	0.2343716592393712	1.7716774014452334	0.33628414060494977	0.22791516131329617	1.5903966172705963	0.3257238738012139	0.021124282567457582	1.4973055718183226	0.5321091842639248	0.05724307458362756	1.2365849433706197	0.7155903060589586	0.1244611283284178	1.0490108490730108	0.8887245024474795	0.014660765370089878	1.4867379747911074	0.1449801675488281	0.026545258824904324	1.2291151029372178	0.0014596562588123857	0.07774663312194603	1.02639455337653	-0.1487154738103314
36	1.2	0.03827579579271253	0.9228257054324951	0.3559904181829573	0.029863005690659822	0.88095004449123	0.46247708824653594	0.006492577475012117	0.5056919487405221	0.49649466275163867	-0.010530630802860003	0.11894563250587743	0.5148338877237757	0.19125678615431127	0.032007587661703536	0.5604586582018432	0.1464962690906032	0.029125410166575653	0.6278771889762534	-0.04914723826620193	0.04843645510710731	0.505454127900164	0.03134803674897971	0.8809407060302235	0.24361239865264425	0.013641539453101596	0.5073983004394593	0.22244302425869936	0.008230380538427947	0.11658336188937163	0.2101650605549895	0.21835104420337398	0.0473299270104283	0.18533108039986163	0.16486430142572017	0.03596477809969142	0.12260135775995322	-0.0457692325294658	0.05939170414794773	0.2041602124774744	0.050051426820397676	1.5786638008609837	0.3462994487074723	0.23488778654653028	1.774983000936466	0.33634903860464094	0.23056986102623175	1.5954667658075294	0.32375136924101106	0.02359237191307368	1.4959913085662675	0.5350167455097224	0.07759203799685885	1.2360283188637171	0.7174363311291064	0.12330551473489347	1.0471950783603234	0.8883137404569194	0.015305653320462817	1.487965335976091	0.14603170193888582	0.029165770326004058	1.2299265979662137	0.002471468848395628	0.07567087930677678	1.019201564249728	-0.14746061042381278
37	1.2333333333333334	0.039771121794102186	0.9228156164265034	0.35474701958089544	0.03130128037444052	0.8816960031650943	0.46246162293784504	0.007388746273773122	0.5082949825368346	0.49445156270905194	-0.010055054555493265	0.119094039623387	0.516668103420439	0.19178421461475814	0.03167950488097019	0.5589230945919533	0.1483374482173771	0.0330204978416616	0.6274332854530813	-0.039077011928581186	0.03643716012123896	0.4961234979725421	0.03269582791803873	0.8823860185480797	0.24524224785677767	0.014831064758581312	0.508772208538802	0.22424137134713257	0.006379428376214935	0.1157246256458221	0.20998088394312214	0.21946698636284415	0.04743306672904011	0.18619329050353747	0.16565421275132972	0.03354438589709641	0.12469734309750531	-0.044821016938087474	0.057555859427503485	0.20336721472052016	0.048950388219182954	1.5788889232947552	0.34582768095537375	0.22817488824551102	1.7788583478314202	0.3345462798388437	0.22771767792086936	1.599171945252678	0.32586606198324564	0.021412767916480866	1.496748561831327	0.530989079197385	0.07820291437148273	1.2380939433883706	0.7167964689252425	0.12399114267503965	1.0487202632079216	0.8888199967397544	0.015003995621403823	1.4850335211910244	0.1431919700571963	0.02946977906871133	1.2295153162504175	0.0011005381115850106	0.07673091443552837	1.018761048119657	-0.14896639548487703
38	1.2666666666666666	0.04107417401842999	0.9241520972623665	0.35641010915355237	0.03175084989530794	0.8834726705344846	0.4626792739850123	0.007026147312090217	0.5073030138669171	0.4964896725262706	-0.006892694447088228	0.10956505789231358	0.5153641999426724	0.19024585479742173	0.03285214183518313	0.5597387378722807	0.14899541352966403	0.0320287688380618	0.6259479634794815	-0.037129026186526255	0.03645828646606538	0.49860733280263275	0.034373175141800966	0.8839716033213832	0.24461040843114565	0.014648812288389998	0.5101236973198441	0.22355510822354446	0.00588115046775646	0.11453129588134092	0.20825077493279762	0.22102882007506913	0.047840828808289916	0.1866170992276851	0.16605794659911094	0.03512124616500349	0.1230470894166017	-0.045870834192833713	0.05724772950351363	0.20221148562570562	0.05224748176257347	1.5787799164305722	0.34380338239687025	0.21611727929473312	1.7978589981345001	0.3375272491259795	0.2727437460130207	1.631341382249995	0.36403746949524857	0.02047258953935244	1.4976080037212818	0.5273706105619808	0.07865020548834073	1.2388769433188422	0.7156045290911885	0.12572257567200748	1.0472570690717786	0.8883595928553685	0.013231539427682782	1.4835314120636938	0.14699102176532225	0.028738008945198942	1.229532797670797	0.00143223063401046	0.0750646647609397	1.01815926129603	-0.14841972866797526
